<svg width="29" height="29" viewBox="0 0 29 29" fill="none" xmlns="http://www.w3.org/2000/svg">
<path d="M19.5 1.625C20.3125 0.8125 21.5625 0.8125 22.375 1.625L27.375 6.6875C28.1875 7.4375 28.1875 8.6875 27.375 9.5L22.375 14.5625C21.5625 15.3125 20.3125 15.3125 19.5 14.5625L14.5 9.5C13.6875 8.6875 13.6875 7.4375 14.5 6.6875L19.5 1.625ZM2 2.8125H8.4375C9.5625 2.8125 10.4375 3.75 10.4375 4.8125V11.3125C10.4375 12.4375 9.5625 13.3125 8.4375 13.3125H2C0.875 13.3125 0 12.4375 0 11.3125V4.8125C0 3.75 0.875 2.8125 2 2.8125ZM2 18.5625H8.4375C9.5625 18.5625 10.4375 19.4375 10.4375 20.5625V27C10.4375 28.125 9.5625 29 8.4375 29H2C0.875 29 0 28.125 0 27V20.5625C0 19.4375 0.875 18.5625 2 18.5625ZM17.6875 18.5625H24.1875C25.25 18.5625 26.1875 19.4375 26.1875 20.5625V27C26.1875 28.125 25.25 29 24.1875 29H17.6875C16.5625 29 15.6875 28.125 15.6875 27V20.5625C15.6875 19.4375 16.5625 18.5625 17.6875 18.5625Z" fill="#8887A1"/>
</svg>
