<svg width="29" height="29" viewBox="0 0 29 29" fill="none" xmlns="http://www.w3.org/2000/svg">
<path d="M25.125 12.8125C26.5625 11.375 29 12.375 29 14.375V26.8125C29 28.0625 27.9375 29 26.75 29H14.1875C12.1875 29 11.1875 26.625 12.625 25.25L18.875 19L25.125 12.8125ZM15.9375 11.125C16.8125 12 16.8125 13.375 15.9375 14.25L14.3125 15.8125C13.4375 16.6875 12 16.6875 11.125 15.8125L9.5625 14.25C8.6875 13.375 8.6875 12 9.5625 11.125L11.125 9.5625C12 8.6875 13.4375 8.6875 14.3125 9.5625L15.9375 11.125ZM8 6.375L6.375 8C5.5 8.8125 4.0625 8.8125 3.1875 8L1.625 6.375C0.75 5.5 0.75 4.125 1.625 3.25L3.1875 1.6875C4.0625 0.8125 5.5 0.8125 6.375 1.6875L8 3.25C8.875 4.125 8.875 5.5 8 6.375Z" fill="#8887A1"/>
</svg>
