<svg width="29" height="29" viewBox="0 0 29 29" fill="none" xmlns="http://www.w3.org/2000/svg">
<path d="M12.75 3.875C11.375 2.4375 12.3125 0 14.3125 0H26.75C28 0 29 1.0625 29 2.25V14.8125C29 16.8125 26.5625 17.8125 25.1875 16.375L18.9375 10.125L12.75 3.875ZM11.0625 13.0625C11.9375 12.1875 13.3125 12.1875 14.1875 13.0625L15.8125 14.6875C16.625 15.5625 16.625 17 15.8125 17.875L14.1875 19.4375C13.3125 20.3125 11.9375 20.3125 11.0625 19.4375L9.5 17.875C8.625 17 8.625 15.5625 9.5 14.6875L11.0625 13.0625ZM6.3125 21L7.9375 22.625C8.8125 23.5 8.8125 24.9375 7.9375 25.8125L6.3125 27.375C5.5 28.25 4.0625 28.25 3.1875 27.375L1.625 25.8125C0.75 24.9375 0.75 23.5 1.625 22.625L3.1875 21C4.0625 20.125 5.5 20.125 6.3125 21Z" fill="#8887A1"/>
</svg>
