<svg width="28" height="28" viewBox="0 0 28 28" fill="none" xmlns="http://www.w3.org/2000/svg">
<path d="M28 2V9.3125C28 10.4375 27.0625 11.3125 26 11.3125H18.75C18.1875 11.3125 17.625 11.0625 17.25 10.6875L14 7C13.3125 6.25 13.3125 5.125 14 4.375L17.25 0.6875C17.625 0.25 18.1875 0 18.75 0H26C27.0625 0 28 0.9375 28 2ZM28 18.75V26C28 27.125 27.0625 28 26 28H18.75C18.1875 28 17.625 27.8125 17.25 27.375L14 23.6875C13.3125 22.9375 13.3125 21.8125 14 21.0625L17.25 17.375C17.625 16.9375 18.1875 16.75 18.75 16.75H26C27.0625 16.75 28 17.625 28 18.75ZM2 8.375H9.1875C9.75 8.375 10.3125 8.625 10.6875 9.0625L13.9375 12.6875C14.625 13.4375 14.625 14.625 13.9375 15.375L10.6875 19C10.3125 19.4375 9.75 19.6875 9.1875 19.6875H2C0.875 19.6875 0 18.8125 0 17.6875V10.375C0 9.25 0.875 8.375 2 8.375Z" fill="#8887A1"/>
</svg>
