<svg width="29" height="30" viewBox="0 0 29 30" fill="none" xmlns="http://www.w3.org/2000/svg">
<path d="M14.875 16.375C14.125 16.375 13.5625 15.75 13.5625 15.0625V2.1875C13.5625 1.375 14.1875 0.9375 14.6875 1.0625C16 1.25 17.375 1.625 18.6875 2.125C20.6875 3 22.5 4.25 24.0625 5.8125C25.625 7.375 26.8125 9.1875 27.6875 11.25C28.1875 12.5 28.5625 13.875 28.75 15.25C28.8125 15.75 28.4375 16.375 27.625 16.375H14.875ZM10.6875 6.4375C10.875 6.625 11 6.9375 11 7.3125V27.9375C11 28.3125 10.875 28.625 10.6875 28.8125C10.5 29 10.25 29.0625 10 29C7.8125 28.5625 5.75 27.4375 4.125 25.8125C2 23.6875 0.75 20.6875 0.75 17.625C0.75 14.5625 2 11.625 4.125 9.4375C5.75 7.8125 7.8125 6.6875 10 6.25C10.25 6.1875 10.5 6.25 10.6875 6.4375ZM13.5625 20.1875C13.5625 19.5 14.125 18.9375 14.875 18.9375H22.5625C22.875 18.9375 23.1875 19.0625 23.375 19.25C23.5625 19.4375 23.625 19.6875 23.5625 19.9375C23.4375 20.6875 23.25 21.375 22.9375 22.0625C22.375 23.5 21.5 24.75 20.4375 25.875C19.375 26.9375 18.125 27.75 16.6875 28.375C16 28.625 15.3125 28.875 14.5625 29C14.3125 29.0625 14.125 29 13.9375 28.8125C13.6875 28.625 13.5625 28.3125 13.5625 27.9375V20.25V20.1875Z" fill="#8887A1"/>
</svg>
