<svg width="20" height="20" viewBox="0 0 20 20" fill="none" xmlns="http://www.w3.org/2000/svg">
<path fill-rule="evenodd" clip-rule="evenodd" d="M20 10.0121V14.6017L19.9988 14.8389C19.9824 16.4906 19.7904 17.1249 19.4434 17.7641C19.0803 18.4331 18.5474 18.9581 17.8684 19.3159L17.7778 19.3626C17.1272 19.6902 16.4333 19.8642 14.6586 19.8642H10V10.0121H20Z" fill="url(#paint0_linear_5_337)"/>
<path fill-rule="evenodd" clip-rule="evenodd" d="M17.8684 0.708298C18.5474 1.06607 19.0803 1.59108 19.4434 2.26004L19.4909 2.34931C19.8234 2.9903 20 3.67389 20 5.42242V10.0121H10V0.160004H14.6586C16.5159 0.160004 17.1894 0.35053 17.8684 0.708298Z" fill="url(#paint1_linear_5_337)"/>
<path fill-rule="evenodd" clip-rule="evenodd" d="M9.99997 0.160004V19.8642H5.34141L5.10068 19.863C3.42421 19.8469 2.7804 19.6577 2.13157 19.3159C1.45256 18.9581 0.919664 18.4331 0.556525 17.7641L0.509114 17.6748C0.176578 17.0339 0 16.3503 0 14.6017V5.42242C0 3.59256 0.193386 2.92901 0.556525 2.26004C0.919664 1.59108 1.45256 1.06607 2.13157 0.708298L2.22217 0.661588C2.87278 0.33397 3.56664 0.160004 5.34141 0.160004H9.99997Z" fill="url(#paint2_linear_5_337)"/>
<defs>
<linearGradient id="paint0_linear_5_337" x1="15" y1="10.0121" x2="19.8818" y2="19.9224" gradientUnits="userSpaceOnUse">
<stop stop-color="#DEF2FE"/>
<stop offset="1" stop-color="#DBF1FE"/>
</linearGradient>
<linearGradient id="paint1_linear_5_337" x1="10" y1="0.160004" x2="14.8819" y2="10.0703" gradientUnits="userSpaceOnUse">
<stop stop-color="#57BCFD"/>
<stop offset="1" stop-color="#51B5FD"/>
</linearGradient>
<linearGradient id="paint2_linear_5_337" x1="3.74999" y1="0.160004" x2="12.0491" y2="17.0075" gradientUnits="userSpaceOnUse">
<stop stop-color="#1CA7FD"/>
<stop offset="1" stop-color="#148CFC"/>
</linearGradient>
</defs>
</svg>
