<svg width="20" height="20" viewBox="0 0 20 20" fill="none" xmlns="http://www.w3.org/2000/svg">
<path fill-rule="evenodd" clip-rule="evenodd" d="M8.32231 4.48486C8.70369 4.08391 9.17418 3.7789 9.69547 3.59469C10.2168 3.41047 10.7741 3.35225 11.3221 3.42477C11.8701 3.49729 12.3932 3.6985 12.8489 4.01201C13.3046 4.32552 13.68 4.74246 13.9444 5.22888C14.4923 4.98312 15.0859 4.85622 15.6861 4.85651C18.0669 4.85651 20 6.80859 20 9.21625C20 11.6239 18.0669 13.5767 15.6861 13.5767C15.4 13.5765 15.1145 13.5481 14.8339 13.4921C14.4416 14.1968 13.795 14.7243 13.0269 14.9664C12.2587 15.2085 11.4272 15.1468 10.703 14.7939C10.4217 15.4584 9.94762 16.0228 9.34225 16.414C8.73689 16.8051 8.0282 17.0049 7.30813 16.9874C6.58806 16.9699 5.88986 16.736 5.3041 16.3159C4.71835 15.8958 4.27209 15.3091 4.02322 14.6317C3.79735 14.6791 3.56716 14.7028 3.33638 14.7022C1.49191 14.7036 2.33934e-06 13.1867 2.33934e-06 11.3228C-0.000691335 10.7309 0.152895 10.1491 0.445554 9.63506C0.738213 9.12098 1.15979 8.69243 1.66855 8.39183C1.29195 7.51928 1.24704 6.53877 1.5423 5.63531C1.83756 4.73186 2.45257 3.96794 3.27128 3.48769C4.08999 3.00744 5.05578 2.84408 5.98643 3.02843C6.91707 3.21278 7.74821 3.7321 8.32301 4.48838" fill="#00A1E0"/>
<path fill-rule="evenodd" clip-rule="evenodd" d="M11.8234 7.86572C11.8622 7.87205 11.9006 7.88124 11.9381 7.89322V7.8897C11.9422 7.89071 11.9461 7.89261 11.9495 7.89525C11.9529 7.8979 11.9557 7.90123 11.9577 7.90503C11.9597 7.90883 11.9608 7.91302 11.9611 7.9173C11.9614 7.92158 11.9607 7.92588 11.9592 7.9299L11.8705 8.1739C11.8635 8.19153 11.8586 8.20353 11.8206 8.19153C11.8114 8.18872 11.7973 8.18519 11.7614 8.17743C11.73 8.17088 11.6979 8.16757 11.6657 8.16755C11.6235 8.16697 11.5814 8.17315 11.5412 8.1859C11.5047 8.19777 11.4716 8.21834 11.4448 8.24584C11.4088 8.28047 11.381 8.32261 11.3631 8.36925C11.3357 8.45489 11.3152 8.54263 11.3019 8.6316H11.6728C11.7037 8.6309 11.7101 8.6457 11.7101 8.66897L11.6643 8.91369C11.6631 8.9231 11.6585 8.93175 11.6514 8.93798C11.6443 8.94422 11.6351 8.94762 11.6256 8.94755H11.2435L10.9824 10.4285C10.9602 10.5616 10.9261 10.6924 10.8804 10.8192C10.8478 10.9149 10.7966 11.0031 10.7298 11.0787C10.6726 11.1452 10.6001 11.1968 10.5187 11.229C10.4268 11.2596 10.3304 11.2743 10.2336 11.2727C10.1767 11.2744 10.1197 11.2689 10.064 11.2565C10.0281 11.2488 9.99283 11.2385 9.95848 11.2254C9.95425 11.2237 9.95041 11.2211 9.94719 11.2178C9.94397 11.2145 9.94143 11.2106 9.93972 11.2064C9.93802 11.2021 9.93718 11.1975 9.93726 11.1929C9.93734 11.1883 9.93834 11.1838 9.94019 11.1796L10.026 10.9433C10.0275 10.9393 10.0298 10.9356 10.0327 10.9324C10.0344 10.9307 10.0362 10.9291 10.0381 10.9278C10.0397 10.9267 10.0414 10.9257 10.0432 10.9249C10.0452 10.924 10.0474 10.9233 10.0496 10.9228C10.0516 10.9224 10.0536 10.9221 10.0556 10.9221C10.06 10.922 10.0643 10.9227 10.0683 10.9243C10.0882 10.9337 10.1092 10.9406 10.1309 10.9448C10.1615 10.9511 10.1926 10.9546 10.2238 10.9553C10.2701 10.9561 10.3162 10.9495 10.3603 10.9356C10.4036 10.9201 10.4408 10.8912 10.4666 10.8531C10.5018 10.8026 10.5288 10.7469 10.5468 10.688C10.5781 10.5947 10.6016 10.4989 10.6172 10.4017L10.8769 8.94755H10.6207C10.5904 8.94755 10.5834 8.93344 10.5834 8.91017L10.6263 8.66897C10.6276 8.66016 10.6319 8.65206 10.6384 8.64602C10.6449 8.63998 10.6533 8.63639 10.6622 8.63583H10.9254L10.9402 8.55684C10.9789 8.32342 11.0577 8.1464 11.1731 8.03004C11.239 7.96867 11.3166 7.92138 11.4013 7.89107C11.486 7.86076 11.576 7.84806 11.6657 7.85373C11.7185 7.85314 11.7713 7.85714 11.8234 7.86572ZM6.75542 10.4107C6.75584 10.4082 6.75597 10.4057 6.75581 10.4031H6.75862V7.92355C6.75881 7.91908 6.7581 7.91462 6.75652 7.91043C6.75495 7.90625 6.75254 7.90243 6.74945 7.89919C6.74636 7.89596 6.74265 7.8934 6.73854 7.89165C6.73443 7.88989 6.73001 7.88899 6.72555 7.88899H6.41802C6.41355 7.88899 6.40914 7.88989 6.40503 7.89165C6.40092 7.8934 6.39721 7.89596 6.39412 7.89919C6.39103 7.90243 6.38862 7.90625 6.38705 7.91043C6.38596 7.91333 6.38528 7.91635 6.38502 7.91942C6.38491 7.92079 6.38489 7.92217 6.38494 7.92355V10.4031C6.38483 10.4057 6.38502 10.4083 6.38549 10.4108C6.38585 10.4127 6.38636 10.4146 6.38704 10.4164C6.38861 10.4206 6.391 10.4245 6.39408 10.4277C6.39563 10.4294 6.39734 10.4309 6.39918 10.4322C6.40099 10.4335 6.40294 10.4346 6.40498 10.4355C6.40909 10.4373 6.41352 10.4383 6.41802 10.4384H6.72273C6.72726 10.4384 6.73174 10.4375 6.7359 10.4357C6.74006 10.4339 6.7438 10.4313 6.7469 10.428C6.75 10.4246 6.75239 10.4207 6.75392 10.4165C6.7546 10.4146 6.7551 10.4127 6.75542 10.4107ZM2.919 10.2718C2.91295 10.2662 2.90284 10.2567 2.91344 10.2289L2.99367 10.0054C3.00634 9.9666 3.02322 9.97366 3.04786 9.98706C3.06089 9.99415 3.07177 10.0009 3.08339 10.0081C3.09372 10.0145 3.10465 10.0214 3.11823 10.0294C3.27589 10.1305 3.45953 10.1835 3.64673 10.1817C3.82407 10.1817 3.93526 10.0872 3.93526 9.95955V9.9525C3.93526 9.81428 3.76495 9.76138 3.56791 9.70073L3.52428 9.68734C3.25123 9.60976 2.9613 9.49763 2.9613 9.15489V9.14783C2.9613 8.82202 3.22379 8.59493 3.59958 8.59493H3.6404C3.84688 8.5944 4.04975 8.64918 4.22801 8.75361C4.23638 8.75747 4.24306 8.76425 4.24681 8.77269C4.24959 8.77891 4.25063 8.78573 4.24988 8.79243C4.24962 8.7948 4.24913 8.79715 4.24842 8.79945L4.16467 9.02512C4.14989 9.06391 4.11048 9.03782 4.11048 9.03782C3.94918 8.95386 3.77075 8.90825 3.58902 8.90453C3.43068 8.90453 3.32724 8.98916 3.32724 9.10411V9.11117C3.32724 9.24494 3.5026 9.3021 3.70557 9.36825L3.70655 9.36857L3.74173 9.37986C4.01055 9.46518 4.29909 9.58367 4.29909 9.90878V9.91583C4.29909 10.2677 4.04363 10.4864 3.63406 10.4864C3.42591 10.4914 3.21996 10.4428 3.03589 10.3453C2.99646 10.3242 2.95838 10.3007 2.92189 10.2748C2.9212 10.2739 2.92018 10.2729 2.919 10.2718ZM8.92611 10.2762C8.92188 10.2706 8.90429 10.2635 8.91696 10.2311L8.91344 10.2275L8.99437 10.0019C8.996 9.99651 8.99888 9.99162 9.00278 9.9876C9.00667 9.98358 9.01147 9.98055 9.01677 9.97876C9.02206 9.97696 9.02771 9.97646 9.03324 9.97729C9.03876 9.97812 9.04402 9.98026 9.04856 9.98353C9.06283 9.9917 9.07451 9.99893 9.08742 10.0069C9.09679 10.0126 9.1068 10.0187 9.11893 10.0258C9.27656 10.1271 9.46018 10.1803 9.64743 10.1789C9.82477 10.1789 9.93596 10.0837 9.93596 9.95603V9.94897C9.93596 9.81075 9.76636 9.75786 9.56861 9.69721L9.52498 9.68381C9.25193 9.60624 8.962 9.49481 8.962 9.15136V9.14431C8.962 8.81849 9.22449 8.59141 9.60028 8.59141H9.6411C9.84914 8.59173 10.0533 8.64799 10.2322 8.75432C10.2405 8.75843 10.2471 8.76539 10.2507 8.77393C10.2543 8.78247 10.2547 8.79202 10.2519 8.80086C10.2449 8.82131 10.1766 9.00538 10.1689 9.02583C10.1541 9.06462 10.114 9.03853 10.114 9.03853C9.95282 8.9549 9.7747 8.90931 9.59324 8.90523C9.4342 8.90523 9.33145 8.98987 9.33145 9.10482V9.11187C9.33145 9.24586 9.50739 9.30369 9.71077 9.36928L9.74595 9.38126C10.0155 9.46589 10.3033 9.58437 10.3033 9.90948V9.91653C10.3033 10.2684 10.0479 10.4878 9.63828 10.4878C9.43013 10.4928 9.22416 10.4443 9.04011 10.3467C9.00067 10.3256 8.9626 10.3021 8.92611 10.2762ZM12.9099 10.0054C12.9901 9.86356 13.028 9.70164 13.019 9.53888C13.019 9.53876 13.019 9.53865 13.019 9.53853V9.53924C13.019 9.53913 13.019 9.53898 13.019 9.53888C13.0283 9.37684 12.9907 9.21559 12.9106 9.07449C12.874 9.02071 12.8239 8.97754 12.7653 8.94931C12.7068 8.92109 12.6418 8.9088 12.5771 8.9137C12.5124 8.9084 12.4475 8.92051 12.3891 8.94878C12.3307 8.97705 12.2809 9.02045 12.2449 9.07449C12.1645 9.2166 12.1269 9.37899 12.1365 9.54206C12.1276 9.70485 12.1651 9.86681 12.2449 10.0089C12.2809 10.0628 12.3306 10.106 12.3889 10.1341C12.4472 10.1623 12.5119 10.1743 12.5764 10.169C12.6414 10.1737 12.7066 10.1611 12.7652 10.1324C12.8238 10.1036 12.8737 10.0598 12.9099 10.0054ZM13.2062 8.87209C13.2778 8.95985 13.3307 9.06137 13.3617 9.1704L13.3589 9.16758C13.4265 9.40905 13.4265 9.66449 13.3589 9.90596C13.3278 10.0147 13.2749 10.116 13.2034 10.2036C13.1319 10.289 13.0419 10.3571 12.9402 10.4024C12.7048 10.4993 12.4408 10.4993 12.2055 10.4024C12.1039 10.3572 12.0141 10.2892 11.943 10.2036C11.8711 10.1162 11.8179 10.0149 11.7868 9.90596C11.7201 9.66436 11.7201 9.40918 11.7868 9.16758C11.818 9.0585 11.8712 8.95698 11.943 8.86927C12.0146 8.78383 12.1043 8.71542 12.2055 8.66898C12.3221 8.62058 12.447 8.59566 12.5732 8.59566C12.6994 8.59566 12.8243 8.62058 12.9409 8.66898C13.0434 8.71596 13.134 8.78536 13.2062 8.87209ZM16.1673 10.0986C16.1703 10.1021 16.1725 10.1061 16.1738 10.1105L16.2583 10.3432C16.2615 10.3505 16.2619 10.3588 16.2593 10.3664C16.2566 10.374 16.2513 10.3803 16.2442 10.3841C16.089 10.4416 15.9248 10.4709 15.7593 10.4708C15.4623 10.4708 15.2343 10.3855 15.083 10.2163C14.9317 10.047 14.8557 9.81428 14.8557 9.53219C14.8546 9.40683 14.8734 9.28209 14.9113 9.16264C14.9459 9.05193 15.0026 8.94946 15.0781 8.86151C15.1543 8.77527 15.2485 8.7069 15.354 8.66122C15.4748 8.61123 15.6047 8.5872 15.7354 8.5907C15.8213 8.58993 15.9072 8.59559 15.9923 8.60763C16.07 8.62029 16.1465 8.63964 16.221 8.66546C16.2252 8.66656 16.2291 8.66853 16.2324 8.67125C16.2338 8.67233 16.235 8.67352 16.2362 8.6748C16.2379 8.67674 16.2394 8.67889 16.2406 8.68121C16.2426 8.68506 16.2437 8.68929 16.244 8.69362C16.2443 8.69796 16.2436 8.7023 16.2421 8.70636C16.2198 8.77183 16.2021 8.81986 16.183 8.87155C16.1749 8.89335 16.1666 8.91581 16.1576 8.9405C16.145 8.97576 16.1182 8.96377 16.1182 8.96377C16.0009 8.92743 15.8786 8.91005 15.7558 8.91229C15.6836 8.90742 15.6114 8.92013 15.5452 8.94937C15.479 8.9786 15.4209 9.02347 15.3758 9.08013C15.2834 9.21216 15.2371 9.37108 15.2442 9.53219C15.2435 9.74587 15.2963 9.90313 15.3913 10.0012C15.4429 10.0515 15.5044 10.0906 15.5718 10.116C15.6393 10.1414 15.7113 10.1525 15.7832 10.1486C15.8459 10.149 15.9085 10.1445 15.9704 10.1352C16.0251 10.1253 16.0786 10.11 16.1302 10.0893C16.1344 10.0877 16.139 10.0869 16.1435 10.0871C16.1454 10.0872 16.1473 10.0874 16.1491 10.0878C16.1517 10.0883 16.1542 10.0892 16.1566 10.0904C16.1607 10.0924 16.1643 10.0952 16.1673 10.0986ZM16.867 9.07026C16.816 9.15375 16.7839 9.24737 16.7727 9.34459V9.34742H17.5996C17.5977 9.25093 17.5713 9.15651 17.5229 9.07308C17.4892 9.01792 17.4412 8.97289 17.3841 8.94273C17.3271 8.91257 17.2629 8.8984 17.1984 8.90171C17.1333 8.89802 17.0683 8.91167 17.0101 8.94127C16.9519 8.97087 16.9025 9.01537 16.867 9.07026ZM17.7783 8.82978C17.8465 8.90866 17.8972 9.00123 17.9268 9.10129L17.9296 9.09424C17.9751 9.25702 17.9869 9.42743 17.9641 9.59495C17.9631 9.60318 17.9591 9.61074 17.9528 9.61619C17.9466 9.62166 17.9386 9.62463 17.9303 9.62457H16.7692C16.7762 9.79947 16.8184 9.9257 16.9036 10.011C16.9572 10.0596 17.0199 10.097 17.088 10.1212C17.1561 10.1454 17.2283 10.1559 17.3005 10.1521C17.4637 10.1587 17.6264 10.1291 17.7769 10.0653C17.7811 10.0638 17.7856 10.0631 17.7901 10.0632C17.7924 10.0633 17.7946 10.0637 17.7968 10.0642C17.799 10.0647 17.801 10.0655 17.803 10.0664C17.8071 10.0683 17.8107 10.071 17.8137 10.0743C17.8148 10.0755 17.8158 10.0768 17.8167 10.0781C17.8183 10.0805 17.8196 10.0831 17.8205 10.0858L17.8965 10.2974C17.9113 10.3333 17.8994 10.3453 17.8867 10.3531C17.8142 10.3933 17.6383 10.4694 17.3026 10.4694C17.1587 10.472 17.0156 10.4481 16.8804 10.3989C16.7708 10.3591 16.6721 10.294 16.5922 10.2091C16.5122 10.1241 16.4533 10.0214 16.4201 9.90948C16.3844 9.78912 16.3669 9.66409 16.368 9.53853C16.3671 9.41332 16.3842 9.28863 16.4187 9.16829C16.4499 9.05797 16.5033 8.95524 16.5756 8.86645C16.6487 8.77967 16.7397 8.70988 16.8424 8.66193C16.9637 8.61133 17.0945 8.58729 17.2259 8.59141C17.3402 8.59214 17.4532 8.61613 17.5581 8.66193C17.6421 8.70222 17.7171 8.75934 17.7783 8.82978ZM7.5848 9.07308C7.5341 9.15663 7.50216 9.25024 7.4912 9.34742H8.31738C8.31571 9.25098 8.28955 9.15657 8.24138 9.07308C8.2071 9.01849 8.15888 8.97408 8.10171 8.94445C8.04455 8.91482 7.98052 8.90103 7.91626 8.90453C7.85108 8.90084 7.7861 8.91449 7.72789 8.94409C7.66968 8.97369 7.62031 9.01819 7.5848 9.07308ZM8.49613 8.83259C8.56459 8.91131 8.61525 9.00393 8.64461 9.10411L8.64673 9.09706C8.69188 9.2599 8.70385 9.43019 8.68191 9.59777C8.68088 9.60599 8.67687 9.61355 8.67064 9.61902C8.66442 9.62448 8.65641 9.62745 8.64813 9.62739H7.48698C7.49331 9.80229 7.53624 9.92853 7.62139 10.0139C7.67505 10.0624 7.73772 10.0998 7.80583 10.124C7.87394 10.1482 7.94613 10.1587 8.0183 10.1549C8.18131 10.1615 8.34376 10.1318 8.49402 10.0682C8.49822 10.0666 8.50269 10.0659 8.50717 10.0661C8.51165 10.0662 8.51605 10.0673 8.52011 10.0692C8.52249 10.0703 8.52473 10.0717 8.52678 10.0734C8.52822 10.0745 8.52958 10.0758 8.53082 10.0771C8.53384 10.0805 8.53616 10.0844 8.53765 10.0886L8.61365 10.3002C8.62913 10.3361 8.61647 10.3481 8.6038 10.3559C8.53202 10.3961 8.35538 10.4723 8.02041 10.4723C7.87653 10.4749 7.7334 10.451 7.59817 10.4017C7.4886 10.3621 7.3899 10.2971 7.31006 10.212C7.23022 10.127 7.17149 10.0243 7.13864 9.91231C7.10236 9.79205 7.08456 9.66697 7.08586 9.54135C7.08493 9.41614 7.10199 9.29145 7.13652 9.17111C7.16792 9.06075 7.22157 8.95802 7.29416 8.86927C7.36688 8.78217 7.45797 8.71232 7.56087 8.66475C7.68195 8.614 7.81252 8.58994 7.9437 8.59423C8.05804 8.59496 8.17105 8.61895 8.27586 8.66475C8.36006 8.70485 8.43506 8.762 8.49613 8.83259ZM4.91485 10.035C4.93306 10.0632 4.95705 10.0873 4.98522 10.1055L4.98178 10.1014C4.98513 10.1046 5.09044 10.1857 5.32161 10.1718C5.42681 10.1651 5.53144 10.1512 5.63477 10.1302V9.602C5.53086 9.58602 5.426 9.57706 5.3209 9.5752C5.08374 9.57239 4.98381 9.65912 4.98381 9.65912C4.94889 9.6847 4.92105 9.71879 4.90295 9.75815C4.88485 9.79752 4.87707 9.84087 4.88037 9.88409C4.87759 9.93664 4.88953 9.98891 4.91485 10.035ZM5.376 9.28612C5.40223 9.2872 5.42588 9.28818 5.44687 9.28818L5.44757 9.2917C5.44757 9.2917 5.53906 9.30016 5.63828 9.31427V9.26561C5.63828 9.11046 5.60591 9.03711 5.54328 8.98845C5.45815 8.93303 5.35747 8.90656 5.25616 8.91299C5.08125 8.91425 4.90884 8.95473 4.75158 9.03147L4.73258 9.04064C4.72974 9.04172 4.72676 9.04235 4.72373 9.04249C4.72278 9.04254 4.72183 9.04254 4.72087 9.04249C4.71689 9.0423 4.71298 9.04127 4.70941 9.03948C4.70584 9.03769 4.70267 9.03518 4.70012 9.0321C4.69757 9.02902 4.69568 9.02544 4.69458 9.0216L4.61506 8.80227C4.61088 8.79467 4.60965 8.78579 4.61159 8.77733C4.61272 8.77244 4.61487 8.76788 4.61785 8.76394C4.62002 8.76108 4.62263 8.75854 4.62562 8.75643C4.72977 8.67463 4.98241 8.62526 4.98241 8.62526C5.08513 8.60711 5.18916 8.59745 5.29346 8.59634C5.52498 8.59634 5.70303 8.65065 5.82547 8.75714C5.94793 8.86363 6.00985 9.03711 6.00985 9.26984V10.3277C6.01049 10.3361 6.00816 10.3446 6.00329 10.3515C5.99841 10.3585 5.99128 10.3635 5.98311 10.3658C5.98311 10.3658 5.94018 10.3778 5.90148 10.3869C5.80507 10.4074 5.70795 10.4264 5.61013 10.4433C5.49389 10.4632 5.37618 10.4731 5.25827 10.473C5.1549 10.474 5.05173 10.4634 4.95074 10.4412C4.86595 10.4238 4.78568 10.389 4.71499 10.339C4.65079 10.2918 4.59949 10.2293 4.5658 10.157C4.52821 10.0738 4.50992 9.98315 4.51232 9.89185C4.50957 9.80211 4.52925 9.71311 4.56956 9.63293C4.60987 9.55276 4.66954 9.48394 4.74314 9.43274C4.81612 9.3808 4.89791 9.34257 4.98452 9.31991C5.07633 9.29533 5.17098 9.283 5.26601 9.28324C5.30661 9.28324 5.34331 9.28476 5.376 9.28612ZM14.7785 8.6654C14.7815 8.67314 14.7815 8.68175 14.7783 8.68944V8.6845C14.7671 8.71694 14.7108 8.87562 14.6911 8.92851C14.6833 8.94896 14.6707 8.96024 14.6488 8.96024C14.607 8.95053 14.5644 8.94509 14.5215 8.94402C14.4688 8.94411 14.4164 8.9517 14.3659 8.96659C14.3127 8.98331 14.2644 9.01285 14.2252 9.05263C14.1788 9.10094 14.1441 9.15935 14.1239 9.22329C14.0957 9.32231 14.0826 9.42502 14.0851 9.52795V10.4003C14.0851 10.4096 14.0815 10.4184 14.0751 10.425C14.0686 10.4316 14.0599 10.4354 14.0507 10.4356H13.746C13.7367 10.4354 13.7278 10.4316 13.7213 10.4251C13.7147 10.4185 13.7109 10.4096 13.7108 10.4003V8.66898C13.7106 8.66451 13.7113 8.66005 13.7129 8.65587C13.7144 8.65168 13.7168 8.64786 13.7199 8.64463C13.723 8.6414 13.7267 8.63883 13.7308 8.63708C13.735 8.63533 13.7394 8.63442 13.7438 8.63443H14.0408C14.0453 8.63443 14.0498 8.63533 14.0539 8.63707C14.058 8.63881 14.0618 8.64137 14.065 8.64459C14.0681 8.64781 14.0706 8.65162 14.0722 8.65581C14.0729 8.65761 14.0735 8.65944 14.0739 8.66132C14.0744 8.66383 14.0746 8.6664 14.0746 8.66898V8.81003C14.1265 8.74563 14.1935 8.69501 14.2695 8.66263C14.3632 8.62025 14.4664 8.6037 14.5686 8.61468C14.634 8.61944 14.6988 8.63054 14.7621 8.64782C14.7696 8.65136 14.7755 8.65765 14.7785 8.6654Z" fill="#FFFFFE"/>
</svg>
