<svg width="84" height="20" viewBox="0 0 84 20" fill="none" xmlns="http://www.w3.org/2000/svg">
<path fill-rule="evenodd" clip-rule="evenodd" d="M34.1608 3.11145C30.7175 3.11145 28.3207 5.69659 28.3207 9.42724C28.3207 13.1579 30.7175 15.743 34.1608 15.743C35.4957 15.743 36.7093 15.3715 37.6801 14.6285V12.291C36.6334 13.2817 35.4806 13.7771 34.2215 13.7771C31.8855 13.7771 30.3837 12.0588 30.3837 9.42724C30.3837 6.74922 31.8855 5.07739 34.2215 5.07739C35.4806 5.07739 36.6486 5.57275 37.6801 6.56346V4.226C36.7093 3.48297 35.4957 3.11145 34.1608 3.11145ZM41.2904 11.7182H47.3125H47.3277V10.9288C47.3277 8.25075 45.7956 6.48605 43.5202 6.48605C41.078 6.48605 39.4094 8.39007 39.4094 11.161C39.4094 13.9783 41.1538 15.743 43.9601 15.743C45.0523 15.743 46.0686 15.4644 46.8574 14.9535V13.1424C46.0838 13.6842 45.0978 13.9783 44.0208 13.9783C42.3977 13.9783 41.4724 13.2353 41.2904 11.7182ZM45.5074 10.2012H41.3359C41.5634 8.91639 42.3522 8.18883 43.5354 8.20431C44.6882 8.20431 45.3708 8.88543 45.5074 10.2012ZM56.687 9.72134V15.5573H54.7757V10.0929C54.7757 8.97831 54.1537 8.31267 53.1678 8.31267C52.3486 8.31267 51.6053 8.79255 51.2413 9.56654V15.5573H49.33V6.67181H51.1047V7.95664C51.6812 7.01236 52.5913 6.48605 53.7138 6.48605C55.519 6.48605 56.687 7.77088 56.687 9.72134ZM58.5376 12.9721V14.9535C59.3871 15.4644 60.4338 15.743 61.6321 15.7121C63.8923 15.7121 65.2879 14.6594 65.2879 12.9102C65.2879 11.6099 64.5143 10.774 63.0429 10.4179L61.4046 10.0309C60.7978 9.9071 60.4945 9.61298 60.4945 9.14859C60.4945 8.51391 61.0557 8.17335 62.1327 8.17335C63.1946 8.17335 64.1047 8.49843 64.8632 9.13311V7.15168C64.1805 6.71825 63.2401 6.48605 62.1631 6.48605C59.9787 6.48605 58.6438 7.53868 58.6438 9.22599C58.6438 10.5263 59.3871 11.3932 60.7827 11.7182L62.4209 12.0898C63.1035 12.2446 63.4069 12.5542 63.4069 13.065C63.4069 13.7151 62.8608 14.0247 61.708 14.0247C60.4793 14.0247 59.4326 13.6842 58.5376 12.9721ZM72.3415 6.67183H74.2377V15.5418H72.5084V14.2105C71.932 15.1858 71.037 15.7276 69.8993 15.7276C68.1397 15.7276 66.9413 14.4273 66.9413 12.5077V6.67183H68.8526V12.1208C68.8526 13.2198 69.4897 13.9009 70.4606 13.9009C71.2797 13.9009 71.9926 13.4211 72.3415 12.6161V6.67183ZM76.2855 12.9721V14.9535C77.1349 15.4644 78.1664 15.743 79.38 15.7121C81.6402 15.7121 83.0357 14.6594 83.0357 12.9102C83.0357 11.6099 82.2621 10.774 80.7907 10.4179L79.1524 10.0309C78.5457 9.9071 78.2423 9.61298 78.2423 9.14859C78.2423 8.51391 78.8035 8.17335 79.8805 8.17335C80.9424 8.17335 81.8525 8.49843 82.611 9.13311V7.15168C81.9284 6.71825 80.9879 6.48605 79.9109 6.48605C77.7265 6.48605 76.3917 7.53868 76.3917 9.22599C76.3917 10.5263 77.1349 11.3932 78.5305 11.7182L80.1688 12.0898C80.8514 12.2446 81.1548 12.5542 81.1548 13.065C81.1548 13.7151 80.6087 14.0247 79.4558 14.0247C78.2271 14.0247 77.1805 13.6842 76.2855 12.9721Z" fill="white"/>
<path d="M22.6475 10.0155L17.5962 1.08359C17.2169 0.417957 16.5192 0 15.7607 0H6.88678C6.12832 0 5.43054 0.417957 5.05131 1.08359L4.41421 2.21362H15.7455L14.4865 4.42724H3.15517L1.89614 6.65635H13.2275L11.9684 8.86997H0.637103L0 10.0155L0.621934 11.0991H11.9533L13.1971 13.3127H1.8658L3.12484 15.5263H14.4562L15.7152 17.7399H4.38387L5.05131 18.9164C5.43054 19.582 6.12832 20 6.88678 20H15.7607C16.5192 20 17.2169 19.582 17.5962 18.9164L22.6475 10.0155Z" fill="#EF54AC"/>
</svg>
