<svg width="28" height="24" viewBox="0 0 28 24" fill="none" xmlns="http://www.w3.org/2000/svg">
<path d="M27.655 12.0186L21.4868 1.30031C21.0237 0.501548 20.1717 0 19.2455 0H8.40949C7.48333 0 6.63127 0.501548 6.16819 1.30031L5.39022 2.65635H19.227L17.6896 5.31269H3.8528L2.31539 7.98762H16.1521L14.6147 10.644H0.77797L0 12.0186L0.759447 13.3189H14.5962L16.1151 15.9752H2.27834L3.81576 18.6316H17.6525L19.1899 21.2879H5.35318L6.16819 22.6997C6.63127 23.4985 7.48333 24 8.40949 24H19.2455C20.1717 24 21.0237 23.4985 21.4868 22.6997L27.655 12.0186Z" fill="#EF54AC"/>
</svg>
