<svg width="26" height="30" viewBox="0 0 26 30" fill="none" xmlns="http://www.w3.org/2000/svg">
<path d="M1 11.875V11.3125C1 10.1875 1.875 9.3125 3 9.3125H11C12.0625 9.3125 13 8.375 13 7.3125V3.0625C13 1.1875 15.25 0.3125 16.4375 1.6875L24.375 10.5625C25.5625 11.8125 24.625 13.875 22.875 13.875H3C1.875 13.875 1 13 1 11.875ZM25 18.1875V18.75C25 19.875 24.0625 20.75 23 20.75H15C13.875 20.75 13 21.6875 13 22.75V27C13 28.875 10.6875 29.75 9.5 28.375L1.5625 19.5C0.375 18.25 1.3125 16.1875 3.0625 16.1875H23C24.0625 16.1875 25 17.0625 25 18.1875Z" fill="#8887A1"/>
</svg>
